<svg width="41" height="40" viewBox="0 0 41 40" fill="none" xmlns="http://www.w3.org/2000/svg">
<path d="M20.1628 40C31.2985 40 40.3257 31.0457 40.3257 20C40.3257 8.9543 31.2985 0 20.1628 0C9.02717 0 -6.10352e-05 8.9543 -6.10352e-05 20C-6.10352e-05 31.0457 9.02717 40 20.1628 40Z" fill="white" fill-opacity="0.1"/>
<path d="M18.9958 28.0463C15.0339 27.4707 11.9933 24.0828 11.9933 19.9891C11.9933 15.8954 15.0339 12.5075 18.9958 11.9322V7.69238C12.688 8.29084 7.75494 13.5677 7.75494 19.9891C7.75494 26.4104 12.688 31.687 18.9958 32.2858V28.0463Z" fill="white"/>
<path d="M27.2182 12L27.1081 12.3711V23.1393L27.2182 23.2483L32.2573 20.2937L27.2182 12Z" fill="white"/>
<path d="M27.2183 12L22.1791 20.2937L27.2183 23.2483V18.0217V12Z" fill="white"/>
<path d="M27.2184 24.8742L27.1564 24.9492V28.7851L27.2184 28.9648L32.2606 21.9211L27.2184 24.8742Z" fill="white"/>
<path d="M27.2183 28.9648V24.8742L22.1791 21.9211L27.2183 28.9648Z" fill="white"/>
<path d="M27.2182 23.2482L32.2573 20.2937L27.2182 18.0217V23.2482Z" fill="white"/>
<path d="M22.1791 20.2937L27.2182 23.2482V18.0217L22.1791 20.2937Z" fill="white"/>
</svg>
